<svg width="627" height="130" viewBox="0 0 627 130" fill="none" xmlns="http://www.w3.org/2000/svg">
<path d="M0 8C0 3.58172 3.58172 0 8 0H157V130H8C3.58172 130 0 126.418 0 122V8Z" fill="#2563EB"/>
<path d="M14.831 42.3523V30.1818H72.1719V42.3523H50.7969V100H36.206V42.3523H14.831ZM124.74 30.1818H139.501V75.5227C139.501 80.6136 138.286 85.0682 135.854 88.8864C133.445 92.7045 130.07 95.6818 125.729 97.8182C121.388 99.9318 116.331 100.989 110.558 100.989C104.763 100.989 99.6946 99.9318 95.3537 97.8182C91.0128 95.6818 87.6378 92.7045 85.2287 88.8864C82.8196 85.0682 81.6151 80.6136 81.6151 75.5227V30.1818H96.3764V74.2614C96.3764 76.9205 96.956 79.2841 98.1151 81.3523C99.2969 83.4205 100.956 85.0455 103.092 86.2273C105.229 87.4091 107.717 88 110.558 88C113.422 88 115.911 87.4091 118.024 86.2273C120.161 85.0455 121.808 83.4205 122.967 81.3523C124.149 79.2841 124.74 76.9205 124.74 74.2614V30.1818Z" fill="white"/>
<path d="M157 0H611C619.837 0 627 7.16344 627 16V114C627 122.837 619.837 130 611 130H157V0Z" fill="white"/>
<path d="M196.893 100L176.916 30.1818H193.041L204.598 78.6932H205.178L217.928 30.1818H231.734L244.45 78.7955H245.064L256.621 30.1818H272.746L252.768 100H238.382L225.087 54.3523H224.541L211.28 100H196.893ZM280.646 100V30.1818H327.692V42.3523H295.408V58.9886H325.271V71.1591H295.408V87.8295H327.828V100H280.646ZM339.428 100V30.1818H367.382C372.518 30.1818 376.803 30.9432 380.234 32.4659C383.666 33.9886 386.246 36.1023 387.973 38.8068C389.7 41.4886 390.564 44.5795 390.564 48.0795C390.564 50.8068 390.018 53.2045 388.928 55.2727C387.837 57.3182 386.337 59 384.428 60.3182C382.541 61.6136 380.382 62.5341 377.95 63.0795V63.7614C380.609 63.875 383.098 64.625 385.416 66.0114C387.757 67.3977 389.655 69.3409 391.109 71.8409C392.564 74.3182 393.291 77.2727 393.291 80.7045C393.291 84.4091 392.371 87.7159 390.53 90.625C388.712 93.5114 386.018 95.7955 382.45 97.4773C378.882 99.1591 374.484 100 369.257 100H339.428ZM354.189 87.9318H366.223C370.337 87.9318 373.337 87.1477 375.223 85.5795C377.109 83.9886 378.053 81.875 378.053 79.2386C378.053 77.3068 377.587 75.6023 376.655 74.125C375.723 72.6477 374.393 71.4886 372.666 70.6477C370.962 69.8068 368.928 69.3864 366.564 69.3864H354.189V87.9318ZM354.189 59.3977H365.132C367.155 59.3977 368.95 59.0455 370.518 58.3409C372.109 57.6136 373.359 56.5909 374.268 55.2727C375.2 53.9545 375.666 52.375 375.666 50.5341C375.666 48.0114 374.768 45.9773 372.973 44.4318C371.2 42.8864 368.678 42.1136 365.405 42.1136H354.189V59.3977ZM402.896 100V30.1818H417.658V58.9886H447.624V30.1818H462.351V100H447.624V71.1591H417.658V100H402.896ZM538.68 65.0909C538.68 72.7045 537.237 79.1818 534.351 84.5227C531.487 89.8636 527.578 93.9432 522.624 96.7614C517.692 99.5568 512.146 100.955 505.987 100.955C499.783 100.955 494.214 99.5455 489.283 96.7273C484.351 93.9091 480.453 89.8295 477.589 84.4886C474.726 79.1477 473.294 72.6818 473.294 65.0909C473.294 57.4773 474.726 51 477.589 45.6591C480.453 40.3182 484.351 36.25 489.283 33.4545C494.214 30.6364 499.783 29.2273 505.987 29.2273C512.146 29.2273 517.692 30.6364 522.624 33.4545C527.578 36.25 531.487 40.3182 534.351 45.6591C537.237 51 538.68 57.4773 538.68 65.0909ZM523.714 65.0909C523.714 60.1591 522.976 56 521.499 52.6136C520.044 49.2273 517.987 46.6591 515.328 44.9091C512.669 43.1591 509.555 42.2841 505.987 42.2841C502.419 42.2841 499.305 43.1591 496.646 44.9091C493.987 46.6591 491.919 49.2273 490.442 52.6136C488.987 56 488.26 60.1591 488.26 65.0909C488.26 70.0227 488.987 74.1818 490.442 77.5682C491.919 80.9545 493.987 83.5227 496.646 85.2727C499.305 87.0227 502.419 87.8977 505.987 87.8977C509.555 87.8977 512.669 87.0227 515.328 85.2727C517.987 83.5227 520.044 80.9545 521.499 77.5682C522.976 74.1818 523.714 70.0227 523.714 65.0909ZM541.305 30.1818H557.839L573.76 60.25H574.442L590.362 30.1818H606.896L581.43 75.3182V100H566.771V75.3182L541.305 30.1818Z" fill="black"/>
</svg>
